Coordinates
version=1
nRows=15
nColumns=63
inDegrees=yes

Units are S.I. units (second, meters, Newtons, ...)
If the header above contains a line with 'inDegrees', this indicates whether rotational values are in degrees (yes) or radians (no).

endheader
time	pelvis_tilt	pelvis_list	pelvis_rotation	pelvis_tx	pelvis_ty	pelvis_tz	hip_flexion_r	hip_adduction_r	hip_rotation_r	knee_angle_r	knee_angle_r_beta	ankle_angle_r	subtalar_angle_r	mtp_angle_r	hip_flexion_l	hip_adduction_l	hip_rotation_l	knee_angle_l	knee_angle_l_beta	ankle_angle_l	subtalar_angle_l	mtp_angle_l	L5_S1_Flex_Ext	L5_S1_Lat_Bending	L5_S1_axial_rotation	L4_L5_Flex_Ext	L4_L5_Lat_Bending	L4_L5_axial_rotation	L3_L4_Flex_Ext	L3_L4_Lat_Bending	L3_L4_axial_rotation	L2_L3_Flex_Ext	L2_L3_Lat_Bending	L2_L3_axial_rotation	L1_L2_Flex_Ext	L1_L2_Lat_Bending	L1_L2_axial_rotation	L1_T12_Flex_Ext	L1_T12_Lat_Bending	L1_T12_axial_rotation	Abs_r3	Abs_r2	Abs_r1	Abs_t1	Abs_t2	neck_flexion	neck_bending	neck_rotation	arm_flex_r	arm_add_r	arm_rot_r	elbow_flex_r	pro_sup_r	wrist_flex_r	wrist_dev_r	arm_flex_l	arm_add_l	arm_rot_l	elbow_flex_l	pro_sup_l	wrist_flex_l	wrist_dev_l
0.000000	3.521076	-4.941041	97.046770	0.227580	1.148678	0.355084	-5.240886	3.657182	-0.427717	2.448344	0.042732	24.300671	12.280061	0.000000	-3.400966	-5.698960	3.856605	2.959543	0.051654	23.929832	1.089145	0.000000	-0.150798	0.366645	1.370656	-0.280047	0.487638	1.456322	-0.247746	0.891461	1.456322	-0.172347	0.891461	1.199324	-0.140031	0.747663	1.113658	-0.086166	0.567933	1.027992	-1.077134	4.147564	7.623175	0.000000	0.000000	17.749485	-3.034978	-4.568995	11.250143	-5.926002	41.142375	39.839692	71.981689	10.915527	14.339989	21.608292	-4.417803	68.387220	33.454447	78.331773	3.983624	5.458965
0.020833	3.498718	-4.900949	96.245452	0.229139	1.148537	0.354228	-5.483643	3.641993	1.416189	2.184427	0.038125	23.741172	10.648894	0.000000	-3.883571	-5.622688	5.193390	2.472963	0.043161	22.601775	-1.906786	0.000000	-0.148886	0.347532	1.567486	-0.276495	0.462217	1.665453	-0.244604	0.844989	1.665453	-0.170161	0.844989	1.371550	-0.138255	0.708687	1.273582	-0.085073	0.538327	1.175614	-1.063474	3.931350	8.717885	0.000000	0.000000	17.663807	-3.007918	-5.549120	10.847409	-5.783645	39.542168	39.666663	72.137002	10.537342	14.634131	21.635869	-4.819456	67.537610	33.826075	80.163923	5.172035	8.715943
0.041667	3.458637	-4.904755	95.587900	0.230325	1.148391	0.353865	-5.611461	3.601738	2.773134	1.995086	0.034821	23.316213	9.462352	0.000000	-4.199566	-5.529294	6.280111	2.128149	0.037143	21.561227	-4.306674	0.000000	-0.147333	0.331197	1.721287	-0.273612	0.440492	1.828867	-0.242053	0.805273	1.828867	-0.168387	0.805273	1.506126	-0.136813	0.675377	1.398545	-0.084186	0.513024	1.290965	-1.052385	3.746568	9.573279	0.000000	0.000000	17.556251	-2.930769	-6.250492	10.626506	-5.642390	38.398922	39.581905	72.320738	10.337945	14.746329	21.666731	-5.100807	66.677914	34.120521	81.421306	6.072697	10.863608
0.062500	3.403663	-4.950148	95.064379	0.231160	1.148238	0.353957	-5.630931	3.538398	3.684922	1.876973	0.032759	23.015072	8.678960	0.000000	-4.359874	-5.420834	7.135953	1.914526	0.033415	20.783314	-6.158334	0.000000	-0.145950	0.317645	1.835350	-0.271044	0.422468	1.950060	-0.239782	0.772322	1.950060	-0.166807	0.772322	1.605932	-0.135530	0.647742	1.491222	-0.083396	0.492032	1.376513	-1.042509	3.593263	10.207668	0.000000	0.000000	17.438393	-2.813767	-6.695171	10.565029	-5.510071	37.655009	39.570508	72.531709	10.280395	14.690713	21.696307	-5.278480	65.817795	34.342527	82.153285	6.706028	12.026107
0.083333	3.336624	-5.034816	94.665158	0.231665	1.148075	0.354465	-5.548645	3.453953	4.193358	1.826738	0.031883	22.827026	8.257242	0.000000	-4.375419	-5.299364	7.780103	1.821517	0.031791	20.243161	-7.509583	0.000000	-0.144548	0.306879	1.912969	-0.268440	0.408149	2.032529	-0.237478	0.746146	2.032529	-0.165204	0.746146	1.673848	-0.134227	0.625788	1.554287	-0.082595	0.475356	1.434727	-1.032491	3.471479	10.639358	0.000000	0.000000	17.321810	-2.667149	-6.905219	10.640572	-5.394521	37.252800	39.617560	72.768724	10.327753	14.481412	21.720027	-5.369101	64.966918	34.496835	82.409226	7.092441	12.327588
0.104167	3.260349	-5.156447	94.380501	0.231860	1.147899	0.355350	-5.371195	3.350384	4.340247	1.841033	0.032132	22.741354	8.155723	0.000000	-4.257122	-5.166942	8.231746	1.838545	0.032089	19.915894	-8.408238	0.000000	-0.142936	0.298904	1.957434	-0.265446	0.397542	2.079773	-0.234829	0.726755	2.079773	-0.163361	0.726755	1.712755	-0.132730	0.609525	1.590415	-0.081674	0.463002	1.468075	-1.020976	3.381260	10.886660	0.000000	0.000000	17.218077	-2.501152	-6.902695	10.830729	-5.303572	37.134667	39.708153	73.030595	10.443082	14.132557	21.733320	-5.389295	64.134946	34.588188	82.238494	7.252353	11.892199
0.125000	3.177668	-5.312730	94.200678	0.231767	1.147706	0.356573	-5.105171	3.229671	4.167393	1.916509	0.033449	22.747333	8.332929	0.000000	-4.015908	-5.025625	8.510070	1.955035	0.034122	19.776640	-8.902116	0.000000	-0.140924	0.293723	1.972038	-0.261710	0.390651	2.095290	-0.231524	0.714157	2.095290	-0.161062	0.714157	1.725533	-0.130862	0.598959	1.602280	-0.080524	0.454976	1.479028	-1.006607	3.322650	10.967881	0.000000	0.000000	17.138771	-2.326011	-6.709662	11.113096	-5.245058	37.242981	39.827373	73.316131	10.589442	13.658278	21.731615	-5.355686	63.331542	34.621327	81.690454	7.206179	10.844089
0.145833	3.091408	-5.501353	94.115954	0.231406	1.147495	0.358095	-4.757164	3.093795	3.716602	2.049816	0.035776	22.834243	8.747384	0.000000	-3.662698	-4.877468	8.634259	2.160411	0.037706	19.800524	-9.039032	0.000000	-0.138323	0.291340	1.960072	-0.256880	0.387482	2.082576	-0.227251	0.708363	2.082576	-0.158090	0.708363	1.715063	-0.128447	0.594100	1.592558	-0.079038	0.451285	1.470054	-0.988029	3.295694	10.901330	0.000000	0.000000	17.095468	-2.151964	-6.348180	11.465266	-5.226812	37.520115	39.960311	73.624143	10.729894	13.072703	21.710343	-5.284901	62.566371	34.600996	80.814471	6.974334	9.307406
0.166667	3.004400	-5.720003	94.116596	0.230799	1.147262	0.359878	-4.333767	2.944735	3.029679	2.237607	0.039054	22.991360	9.357614	0.000000	-3.208416	-4.724528	8.623501	2.444097	0.042658	19.962672	-8.866804	0.000000	-0.134943	0.291759	1.924828	-0.250603	0.388039	2.045130	-0.221698	0.709383	2.045130	-0.154227	0.709383	1.684225	-0.125308	0.594955	1.563923	-0.077107	0.451934	1.443621	-0.963887	3.300435	10.705317	0.000000	0.000000	17.099744	-1.989246	-5.840311	11.864833	-5.256666	37.908440	40.092057	73.953440	10.827499	12.389964	21.664931	-5.193565	61.849095	34.531935	79.659910	6.577233	7.406298
0.187500	2.919472	-5.966370	94.192871	0.229967	1.147005	0.361882	-3.841569	2.784473	2.148427	2.476530	0.043224	23.207963	10.122143	0.000000	-2.663984	-4.568863	8.496982	2.795515	0.048791	20.238209	-8.433248	0.000000	-0.130594	0.294984	1.869599	-0.242527	0.392329	1.986449	-0.214554	0.717224	1.986449	-0.149256	0.717224	1.635899	-0.121270	0.601531	1.519049	-0.074622	0.456930	1.402199	-0.932823	3.336918	10.398148	0.000000	0.000000	17.163175	-1.848096	-5.208114	12.289393	-5.342453	38.350328	40.207698	74.302834	10.845319	11.624189	21.590811	-5.098302	61.189380	34.418889	78.276135	6.035292	5.264914
0.208333	2.839453	-6.238142	94.335046	0.228931	1.146721	0.364069	-3.287164	2.614990	1.114652	2.763239	0.048228	23.473330	10.999497	0.000000	-2.040326	-4.412528	8.273887	3.204091	0.055922	20.602262	-7.786180	0.000000	-0.125087	0.301019	1.797676	-0.232299	0.400355	1.910031	-0.205505	0.731898	1.910031	-0.142962	0.731898	1.572966	-0.116156	0.613838	1.460612	-0.071475	0.466278	1.348257	-0.893484	3.405187	9.998134	0.000000	0.000000	17.297337	-1.738748	-4.473651	12.716539	-5.492007	38.788150	40.292324	74.671135	10.746414	10.789508	21.483410	-5.015738	60.596887	34.266598	76.712512	5.368926	3.007401
0.229167	2.768360	-6.552227	94.543575	0.227696	1.146411	0.366415	-2.648658	2.431910	-0.121344	3.087496	0.053887	23.818252	12.053274	0.000000	-1.305372	-4.265905	7.652077	3.659425	0.063869	21.148970	-6.515209	0.000000	-0.116879	0.309288	1.710670	-0.217056	0.411352	1.817587	-0.192020	0.752002	1.817587	-0.133581	0.752002	1.496836	-0.108534	0.630699	1.389919	-0.066785	0.479086	1.283002	-0.834855	3.498722	9.514233	0.000000	0.000000	17.647802	-1.735576	-3.681036	13.113799	-5.731322	39.019593	40.229110	75.417449	10.168967	9.630856	21.367217	-4.969938	60.155056	34.066031	74.935641	4.811158	1.183369
0.250000	2.717966	-6.879569	94.784655	0.226279	1.146080	0.368854	-1.974787	2.254709	-1.235565	3.440665	0.060051	24.156881	12.925900	0.000000	-0.534215	-4.128767	7.160973	4.135815	0.072184	21.643384	-5.446332	0.000000	-0.106326	0.322107	1.617260	-0.197459	0.428402	1.718338	-0.174684	0.783170	1.718338	-0.121521	0.783170	1.415102	-0.098735	0.656840	1.314024	-0.060755	0.498943	1.212945	-0.759479	3.643736	8.994714	0.000000	0.000000	18.053714	-1.762057	-2.804284	13.473757	-6.076929	39.093751	40.130873	75.992171	9.242863	8.335026	21.210148	-4.991032	59.936275	33.814560	72.776204	4.113789	-0.479952
0.270833	2.696097	-7.223587	95.044499	0.224700	1.145702	0.371337	-1.258600	2.087255	-2.312754	3.832473	0.066889	24.499661	13.748533	0.000000	0.262153	-4.004229	6.823161	4.617817	0.080596	22.043972	-4.637467	0.000000	-0.093116	0.340092	1.521325	-0.172926	0.452322	1.616408	-0.152980	0.826899	1.616408	-0.106422	0.826899	1.331159	-0.086467	0.693515	1.236076	-0.053206	0.526802	1.140994	-0.665118	3.847185	8.461153	0.000000	0.000000	18.545998	-1.845285	-1.882066	13.750428	-6.513472	38.825027	40.014172	76.455320	8.057103	7.103583	20.935748	-5.087962	59.623665	33.556563	70.789842	3.257348	-1.795486
0.291667	2.701307	-7.580253	95.333795	0.222964	1.145270	0.373850	-0.503586	1.925643	-3.396426	4.274175	0.074598	24.850087	14.548607	0.000000	1.095739	-3.891552	6.485185	5.141925	0.089744	22.428806	-3.833849	0.000000	-0.078232	0.363109	1.423597	-0.145285	0.482935	1.512571	-0.128527	0.882864	1.512571	-0.089411	0.882864	1.245647	-0.072646	0.740453	1.156672	-0.044702	0.562456	1.067697	-0.558804	4.107566	7.917617	0.000000	0.000000	19.143981	-2.007576	-0.930117	13.909126	-7.031754	38.123857	39.843389	76.882673	6.766786	6.121918	20.576269	-5.273019	59.324964	33.276668	69.120445	2.201161	-2.753380
